<svg width="40" height="40" viewBox="0 0 40 40" fill="none" xmlns="http://www.w3.org/2000/svg">
<path d="M35.8802 26.5687C36.1604 27.2955 36.4046 27.9594 36.679 28.6106C36.7232 28.7141 36.9011 28.8176 37.022 28.8234C37.5302 28.8478 38.0395 28.8234 38.5476 28.8362C39.4093 28.8594 40.0058 29.4467 40 30.249C39.9941 31.0525 39.3965 31.6106 38.5197 31.6234C38.0255 31.6304 37.5302 31.6083 37.0372 31.6362C36.9081 31.6432 36.7244 31.7653 36.6755 31.8815C36.4023 32.5188 36.1627 33.1711 35.8674 33.9316C36.2337 34.2862 36.6825 34.7129 37.122 35.149C37.5302 35.5536 37.6534 36.0455 37.4778 36.5897C37.1662 37.5595 35.9709 37.8711 35.2162 37.1699C34.7488 36.7362 34.3209 36.2595 33.9371 35.8664C33.1825 36.1537 32.5046 36.4002 31.8395 36.6792C31.7371 36.7223 31.6441 36.9106 31.6383 37.0362C31.615 37.5444 31.636 38.0537 31.6255 38.563C31.6092 39.4013 31.036 39.992 30.2488 39.9967C29.4662 40.0013 28.8708 39.4141 28.8406 38.5827C28.822 38.0746 28.8278 37.5653 28.8395 37.056C28.8453 36.8199 28.7813 36.7153 28.5313 36.6316C27.8894 36.4164 27.2685 36.1409 26.5464 35.8525C26.2022 36.2118 25.8092 36.6385 25.3987 37.0455C24.765 37.6734 23.9092 37.7106 23.3406 37.1502C22.7569 36.5734 22.7976 35.7153 23.4418 35.0606C23.7778 34.7188 24.1278 34.3885 24.4522 34.0362C24.5301 33.9513 24.5999 33.7723 24.5627 33.6827C24.2801 33.0036 23.9697 32.3362 23.6487 31.6222C23.1104 31.6222 22.515 31.6304 21.9208 31.6199C21.0883 31.606 20.4801 31.0292 20.4638 30.2548C20.4487 29.4734 21.0697 28.8583 21.9185 28.8339C22.4266 28.8187 22.9359 28.8199 23.4452 28.835C23.6755 28.842 23.7615 28.7536 23.8394 28.5408C24.0487 27.9711 24.3092 27.4199 24.5255 26.8525C24.5685 26.7397 24.5487 26.5408 24.4743 26.4571C24.1232 26.0699 23.7383 25.7141 23.3743 25.3373C22.7987 24.742 22.779 23.899 23.3185 23.3431C23.8732 22.7734 24.7336 22.7803 25.3429 23.3687C25.7197 23.7327 26.0755 24.1176 26.4627 24.4687C26.5453 24.5443 26.7453 24.5629 26.858 24.5211C27.4394 24.3024 28.0162 24.0676 28.5813 23.8059C28.6976 23.7524 28.8162 23.5687 28.8232 23.4385C28.8522 22.9455 28.8267 22.4501 28.8371 21.9559C28.8546 21.078 29.465 20.4408 30.2604 20.4582C31.0511 20.4757 31.6139 21.0908 31.6243 21.9606C31.6313 22.5408 31.6255 23.1222 31.6255 23.6443C32.3406 23.9652 33.0081 24.2757 33.6871 24.5583C33.7767 24.5955 33.9557 24.5245 34.0406 24.4466C34.4127 24.1001 34.7604 23.728 35.1267 23.3745C35.7371 22.7862 36.5999 22.7734 37.1534 23.3362C37.6941 23.885 37.6802 24.7315 37.1093 25.3338C36.6999 25.7664 36.2778 26.1862 35.8627 26.6129C35.8581 26.6245 35.8581 26.642 35.8802 26.5687ZM34.0558 30.2629C34.0569 28.1536 32.3918 26.4792 30.365 26.4059C28.2383 26.3292 26.336 28.1606 26.4092 30.3629C26.4755 32.3676 28.1569 34.0513 30.2255 34.0513C32.3802 34.0536 34.0558 32.3955 34.0558 30.2629Z" fill="#007DB9"/>
<path d="M19.0592 20.4571C13.3999 20.442 8.83472 15.8629 8.84286 10.2105C8.851 4.56167 13.444 -0.012764 19.0941 2.67582e-05C24.7499 0.0128175 29.3348 4.60818 29.3162 10.2454C29.2988 15.9001 24.7045 20.4734 19.0592 20.4571ZM19.0824 17.6652C23.1848 17.6606 26.5115 14.3431 26.5255 10.2442C26.5394 6.13726 23.1894 2.78957 19.0708 2.79306C14.9464 2.79655 11.6243 6.13144 11.6347 10.257C11.644 14.3524 14.9789 17.6699 19.0824 17.6652Z" fill="#007DB9"/>
<path d="M10.9778 38.163C8.44867 38.163 5.91959 38.1653 3.39051 38.163C1.31958 38.1606 0.0114343 36.8618 0.0137599 34.7932C0.0149227 33.6746 -0.0490353 32.5443 0.0893373 31.4408C0.333524 29.4943 1.46609 28.0211 2.92075 26.785C4.9068 25.0978 7.24635 24.0897 9.71612 23.3606C12.7312 22.471 15.8208 22.0769 18.9615 22.0803C19.9243 22.0815 20.5499 22.7431 20.451 23.6513C20.3731 24.3676 19.7755 24.8245 18.9441 24.8769C17.3359 24.978 15.7196 25.0292 14.1266 25.249C11.1557 25.6594 8.3103 26.4943 5.75796 28.1432C4.92424 28.6815 4.16028 29.306 3.56958 30.1187C3.06842 30.8071 2.78237 31.5641 2.79865 32.4304C2.81376 33.1862 2.80098 33.942 2.80214 34.6978C2.8033 35.3304 2.844 35.3723 3.46726 35.3723C8.52541 35.3723 13.5836 35.3723 18.6417 35.3723C18.801 35.3723 18.9627 35.3653 19.1208 35.3781C19.9196 35.4409 20.4778 36.0397 20.4603 36.813C20.4441 37.5804 19.8557 38.1583 19.0441 38.1606C16.3557 38.1676 13.6673 38.163 10.9778 38.163Z" fill="#007DB9"/>
</svg>
