<svg width="60" height="61" viewBox="0 0 60 61" fill="none" xmlns="http://www.w3.org/2000/svg">
<path d="M57.9984 56.2604C58.2234 56.3204 58.4234 56.362 58.6151 56.4254C59.5251 56.7253 60.1017 57.6287 59.9851 58.5603C59.8684 59.4919 59.0901 60.2352 58.1418 60.3102C57.9351 60.3269 57.7251 60.3169 57.5168 60.3186C39.164 60.3186 20.8129 60.3186 2.46015 60.3169C2.17016 60.3169 1.87183 60.3286 1.59017 60.2686C0.605204 60.0619 -0.0664332 59.1536 0.00523128 58.1653C0.0785624 57.1537 0.905199 56.3587 1.9485 56.3237C2.61015 56.302 3.27179 56.3204 4.0001 56.3204C4.0001 56.022 4.0001 55.7787 4.0001 55.5354C4.0001 43.1208 4.0001 30.7045 4.0001 18.2899C4.0001 15.9616 4.90674 14.6083 7.06334 13.7217C16.6397 9.78012 26.2128 5.83524 35.7925 1.90203C38.9857 0.590403 41.9939 2.62034 41.9973 6.0719C42.0023 10.5718 41.9989 15.0716 41.9989 19.5698C41.9989 19.7948 41.9989 20.0198 41.9989 20.3231C42.2639 20.3231 42.4856 20.3231 42.7072 20.3231C46.2688 20.3231 49.832 20.3198 53.3936 20.3248C56.1818 20.3281 57.9968 22.1497 57.9984 24.9497C58.0001 35.136 58.0001 45.3224 58.0001 55.5087C57.9984 55.752 57.9984 56.0004 57.9984 56.2604ZM7.99998 56.272C18.0413 56.272 28.0044 56.272 37.9807 56.272C37.9891 56.1254 37.9991 56.0237 37.9991 55.922C37.9991 39.3225 38.0007 22.7247 37.9991 6.12523C37.9991 5.40859 37.8974 5.35359 37.1607 5.65691C27.6827 9.55679 18.2063 13.4617 8.72163 17.3466C8.18164 17.5682 7.98331 17.8349 7.98498 18.4365C8.00498 30.8078 7.99998 43.1791 7.99998 55.5487C7.99998 55.777 7.99998 56.0037 7.99998 56.272ZM53.9986 56.287C53.9986 56.097 53.9986 55.9354 53.9986 55.7754C53.9986 45.5307 53.9936 35.2877 54.0102 25.043C54.0119 24.448 53.8019 24.3047 53.2436 24.308C49.6837 24.328 46.1221 24.318 42.5622 24.3197C42.3839 24.3197 42.2056 24.343 42.0456 24.353C42.0456 35.0343 42.0456 45.6624 42.0456 56.2854C46.0405 56.287 49.9887 56.287 53.9986 56.287Z" fill="#007DB9"/>
<path d="M22.9778 26.318C21.3746 26.318 19.7713 26.3229 18.1663 26.3163C16.8997 26.3113 15.9981 25.468 16.0014 24.3113C16.0047 23.1497 16.9014 22.3214 18.1763 22.3197C21.3829 22.3147 24.5911 22.3164 27.7977 22.3197C29.0777 22.3214 29.981 23.138 29.996 24.293C30.011 25.4746 29.0993 26.3146 27.7877 26.318C26.1844 26.3213 24.5811 26.318 22.9778 26.318Z" fill="#007DB9"/>
<path d="M23.0628 30.3178C24.6461 30.3178 26.2278 30.3145 27.811 30.3195C29.086 30.3228 29.9893 31.1495 29.996 32.3044C30.0026 33.4627 29.1027 34.3144 27.8377 34.316C24.6095 34.321 21.3812 34.3227 18.153 34.316C16.893 34.3144 15.9897 33.4577 15.9997 32.2994C16.0097 31.1395 16.9047 30.3245 18.188 30.3195C19.8146 30.3145 21.4379 30.3178 23.0628 30.3178Z" fill="#007DB9"/>
<path d="M23.0278 38.3176C24.6111 38.3176 26.1927 38.3142 27.776 38.3192C29.0927 38.3226 30.0043 39.1526 29.996 40.3325C29.9876 41.4875 29.086 42.3158 27.8094 42.3175C24.6028 42.3225 21.3946 42.3225 18.188 42.3175C16.913 42.3158 16.0097 41.4891 15.9997 40.3342C15.9914 39.1492 16.8947 38.3226 18.2147 38.3209C19.8213 38.3143 21.4246 38.3176 23.0278 38.3176Z" fill="#007DB9"/>
<path d="M23.0628 46.3173C24.6461 46.3173 26.2278 46.314 27.811 46.319C29.086 46.3223 29.9893 47.149 29.9976 48.3023C30.006 49.4606 29.1043 50.3122 27.841 50.3155C24.6128 50.3205 21.3846 50.3222 18.1563 50.3155C16.8947 50.3139 15.9931 49.4572 16.0031 48.2989C16.0131 47.139 16.908 46.3223 18.1897 46.319C19.813 46.314 21.4379 46.3173 23.0628 46.3173Z" fill="#007DB9"/>
</svg>
