<svg width="60" height="61" viewBox="0 0 60 61" fill="none" xmlns="http://www.w3.org/2000/svg">
<path d="M14.999 4.78572C14.999 4.12532 14.999 3.56844 14.999 3.01156C15.0008 1.473 15.8435 0.491319 17.1574 0.502029C18.4588 0.510953 19.2836 1.4962 19.2854 3.04547C19.2854 3.59878 19.2854 4.15387 19.2854 4.74466C26.4245 4.74466 33.5137 4.74466 40.7135 4.74466C40.7135 4.13245 40.7099 3.49525 40.7135 2.85984C40.7206 1.45336 41.6168 0.482393 42.8879 0.500242C44.1233 0.518091 44.9891 1.4837 44.998 2.86162C45.0016 3.48097 44.998 4.10033 44.998 4.78393C45.2997 4.78393 45.539 4.78393 45.7782 4.78393C48.3007 4.78393 50.8215 4.77858 53.344 4.78572C57.2036 4.79643 59.9922 7.55405 59.994 11.3987C60.0011 25.5723 60.0029 39.7442 59.994 53.9178C59.9922 57.6893 57.2037 60.4897 53.444 60.4933C37.8214 60.5022 22.1971 60.5022 6.57455 60.4933C2.81128 60.4915 0.0102651 57.6946 0.00669461 53.9339C-0.00223154 39.7388 -0.00223154 25.5438 0.00669461 11.3487C0.00847984 7.58796 2.8095 4.80535 6.57276 4.7875C9.11671 4.775 11.6607 4.78572 14.2064 4.78572C14.4438 4.78572 14.6848 4.78572 14.999 4.78572ZM55.7112 21.9758C38.5248 21.9758 21.4223 21.9758 4.28588 21.9758C4.28588 22.2667 4.28588 22.5095 4.28588 22.7522C4.28588 33.0402 4.28588 43.3282 4.28588 53.6162C4.28588 55.4332 5.0696 56.2096 6.90125 56.2096C22.3006 56.2096 37.6982 56.2096 53.0976 56.2096C54.9328 56.2096 55.7112 55.4368 55.7112 53.6144C55.7112 43.3032 55.7112 32.9938 55.7112 22.6826C55.7112 22.4649 55.7112 22.2435 55.7112 21.9758ZM4.29124 17.5957C21.4705 17.5957 38.573 17.5957 55.7112 17.5957C55.7112 15.5878 55.7112 13.6262 55.7112 11.6646C55.7112 9.85474 54.9203 9.07119 53.0958 9.07119C37.6982 9.07119 22.2988 9.07119 6.90125 9.07119C6.7013 9.07119 6.49957 9.06226 6.29963 9.07654C5.22135 9.15151 4.32516 9.98504 4.30552 11.0595C4.26446 13.2228 4.29124 15.3843 4.29124 17.5957Z" fill="#007DB9"/>
</svg>
