<svg width="17" height="25" viewBox="0 0 17 25" fill="none" xmlns="http://www.w3.org/2000/svg">
<path d="M16.6363 9.07341L15.6353 8.82815L14.2888 14.5091V6.46569C14.2888 3.45255 11.8363 1 8.82315 1C5.81001 1 3.35746 3.45255 3.35746 6.46569V14.5141L2.01105 8.83316L1 9.07341L2.87696 16.9766V16.9816V16.9917C2.93201 17.2219 3.13723 17.3921 3.38248 17.3921H8.29761V22.3072H4.15329C3.86298 22.3072 3.63274 22.5424 3.63274 22.8277V25H4.67383V23.3483H12.9625V25H14.0036L14.0036 22.8277C14.0036 22.5374 13.7683 22.3072 13.483 22.3072H9.33869V17.3921H14.2538C14.4991 17.3921 14.7043 17.2219 14.7593 16.9917V16.9816V16.9766L16.6363 9.07341ZM4.40355 6.46569C4.40355 4.02815 6.38561 2.04609 8.82315 2.04609C11.2607 2.04609 13.2428 4.02815 13.2428 6.46569V13.6482C12.9124 13.443 11.9614 12.6521 8.82315 12.6521C5.74995 12.6521 4.84901 13.4129 4.40355 13.6482V6.46569ZM13.7082 16.346H8.82315H3.93806C4.10824 14.3689 6.23546 13.6932 7.84213 13.6932H8.82315H9.80918C11.4109 13.6982 13.5381 14.3739 13.7082 16.346Z" fill="#007DB9" stroke="#007DB9" stroke-width="0.3"/>
</svg>
