<svg width="20" height="21" viewBox="0 0 20 21" fill="none" xmlns="http://www.w3.org/2000/svg">
<path d="M9 15.5H11V9.5H9V15.5ZM10 7.5C10.2833 7.5 10.521 7.404 10.713 7.212C10.905 7.02 11.0007 6.78267 11 6.5C11 6.21667 10.904 5.979 10.712 5.787C10.52 5.595 10.2827 5.49933 10 5.5C9.71667 5.5 9.479 5.596 9.287 5.788C9.095 5.98 8.99933 6.21733 9 6.5C9 6.78333 9.096 7.021 9.288 7.213C9.48 7.405 9.71733 7.50067 10 7.5ZM10 20.5C8.61667 20.5 7.31667 20.2373 6.1 19.712C4.88333 19.1867 3.825 18.4743 2.925 17.575C2.025 16.675 1.31267 15.6167 0.788 14.4C0.263333 13.1833 0.000666667 11.8833 0 10.5C0 9.11667 0.262667 7.81667 0.788 6.6C1.31333 5.38333 2.02567 4.325 2.925 3.425C3.825 2.525 4.88333 1.81267 6.1 1.288C7.31667 0.763333 8.61667 0.500667 10 0.5C11.3833 0.5 12.6833 0.762667 13.9 1.288C15.1167 1.81333 16.175 2.52567 17.075 3.425C17.975 4.325 18.6877 5.38333 19.213 6.6C19.7383 7.81667 20.0007 9.11667 20 10.5C20 11.8833 19.7373 13.1833 19.212 14.4C18.6867 15.6167 17.9743 16.675 17.075 17.575C16.175 18.475 15.1167 19.1877 13.9 19.713C12.6833 20.2383 11.3833 20.5007 10 20.5ZM10 18.5C12.2333 18.5 14.125 17.725 15.675 16.175C17.225 14.625 18 12.7333 18 10.5C18 8.26667 17.225 6.375 15.675 4.825C14.125 3.275 12.2333 2.5 10 2.5C7.76667 2.5 5.875 3.275 4.325 4.825C2.775 6.375 2 8.26667 2 10.5C2 12.7333 2.775 14.625 4.325 16.175C5.875 17.725 7.76667 18.5 10 18.5Z" fill="#007DB9"/>
</svg>
