<svg width="24" height="25" viewBox="0 0 24 25" fill="none" xmlns="http://www.w3.org/2000/svg">
<g clip-path="url(#clip0_218_576)">
<path d="M23.3989 14.7159C22.5807 11.6623 20.9732 8.87322 18.7503 6.6503C16.5138 4.41382 13.7172 2.79749 10.6629 1.97603L10.0782 1.8218L9.93508 2.40311L5.16233 20.2153L23.5521 15.2877L23.3989 14.7159ZM8.06643 13.9511L8.57592 12.0497C8.82011 12.0634 9.05568 12.1651 9.23285 12.3423C9.62519 12.7347 9.62517 13.373 9.23282 13.7653C8.91775 14.0804 8.44404 14.1422 8.06643 13.9511ZM7.75714 15.1055C8.53537 15.394 9.44571 15.2267 10.07 14.6024C10.9239 13.7485 10.9239 12.3591 10.07 11.5051C9.74404 11.1792 9.32731 10.97 8.88533 10.8952L10.3114 5.57273C12.5305 6.26965 14.5633 7.50086 16.2201 9.15763C17.8779 10.8154 19.1083 12.8484 19.8026 15.0667L6.83661 18.541L7.75714 15.1055ZM20.9471 14.7601C20.1985 12.3415 18.8618 10.1251 17.0572 8.32051C15.2537 6.51694 13.0375 5.17947 10.6182 4.42819L10.9249 3.28328C13.557 4.09166 15.963 5.53726 17.9131 7.48744C19.8504 9.42473 21.2874 11.823 22.0921 14.4533L20.9471 14.7601Z" fill="#007DB9"/>
<path d="M16.7699 11.3974C15.9159 10.5435 14.5265 10.5435 13.6725 11.3974C12.8186 12.2514 12.8186 13.6408 13.6725 14.4947C14.5265 15.3487 15.9159 15.3487 16.7698 14.4947C17.6238 13.6408 17.6238 12.2513 16.7699 11.3974ZM14.5097 13.6576C14.1173 13.2652 14.1173 12.6269 14.5097 12.2346C14.902 11.8422 15.5404 11.8422 15.9327 12.2346C16.325 12.6269 16.325 13.2652 15.9327 13.6576C15.5404 14.0499 14.902 14.0499 14.5097 13.6576Z" fill="#007DB9"/>
<path d="M13.199 8.75084L12.3618 7.9137L11.2456 9.02989L12.0828 9.86703L13.199 8.75084Z" fill="#007DB9"/>
<path d="M12.9602 15.0085L12.123 14.1714L11.0069 15.2876L11.844 16.1247L12.9602 15.0085Z" fill="#007DB9"/>
</g>
<defs>
<clipPath id="clip0_218_576">
<rect width="24" height="24" fill="white" transform="translate(0 0.5)"/>
</clipPath>
</defs>
</svg>
