<svg width="20" height="21" viewBox="0 0 20 21" fill="none" xmlns="http://www.w3.org/2000/svg">
<path d="M18.9298 3.14651C19.1024 3.14651 19.2424 3.0066 19.2424 2.83393V1.21261C19.2424 1.03994 19.1024 0.900024 18.9298 0.900024H0.712488C0.539878 0.900024 0.399902 1.03994 0.399902 1.21261V2.83393C0.399902 3.0066 0.539878 3.14651 0.712488 3.14651H1.30334V12.8869H0.712488C0.539878 12.8869 0.399902 13.0268 0.399902 13.1995V14.8208C0.399902 14.9935 0.539878 15.1334 0.712488 15.1334H9.50858V16.0961L6.09721 19.5684C5.97624 19.6915 5.97799 19.8895 6.10115 20.0104C6.22424 20.1315 6.42223 20.1296 6.5432 20.0064L7.75272 18.7753H11.8896L13.0991 20.0064C13.22 20.1296 13.4181 20.1313 13.5412 20.0104C13.6643 19.8894 13.6661 19.6915 13.5451 19.5684L10.1337 16.0961V15.1334H18.9298C19.1024 15.1334 19.2424 14.9935 19.2424 14.8208V13.1995C19.2424 13.0268 19.1024 12.8869 18.9298 12.8869H18.339V3.14651H18.9298ZM11.2754 18.1502H8.36689L9.8211 16.67L11.2754 18.1502ZM18.6172 13.512V14.5082H1.02507V13.512H1.61592H18.0264H18.6172ZM1.92851 12.8869V3.14651H17.7138V12.8869H1.92851ZM1.02507 2.52134V1.52519H18.6172V2.52134C17.6806 2.52134 1.89494 2.52134 1.02507 2.52134Z" fill="#007DB9" stroke="#007DB9" stroke-width="0.2"/>
</svg>
